<svg xmlns="http://www.w3.org/2000/svg" viewBox="0 0 1400.3 1384.3" width="1400.3" height="1384.3" style="max-width:100%;height:auto" font-family="system-ui, sans-serif">
<defs>
<linearGradient id="epd-wall" x1="0" y1="0" x2="0" y2="1"><stop offset="0" stop-color="#e9e3d3"/><stop offset="1" stop-color="#dcd3bd"/></linearGradient>
<marker id="epd-arrow" viewBox="0 0 10 10" refX="9" refY="5" markerWidth="7" markerHeight="7" orient="auto-start-reverse"><path d="M0 0 L10 5 L0 10 z" fill="rgba(43,33,24,0.75)"/></marker>
<marker id="epd-arrow-x" viewBox="0 0 10 10" refX="9" refY="5" markerWidth="7" markerHeight="7" orient="auto-start-reverse"><path d="M0 0 L10 5 L0 10 z" fill="#7c5cbf"/></marker>
<marker id="epd-arrow-agg" viewBox="0 0 10 10" refX="9" refY="5" markerWidth="7" markerHeight="7" orient="auto-start-reverse"><path d="M0 0 L10 5 L0 10 z" fill="#8a6d1d"/></marker>
</defs>
<g id="epd-content">
<rect x="0" y="0" width="1400.3" height="1384.3" fill="url(#epd-wall)"/>
<text x="40" y="34" font-size="22" font-weight="700" fill="#2b2118">Order to Door</text>
<text x="40" y="55" font-size="12" fill="#2b2118" opacity="0.75">event architecture · Event Portal graph view: domains, applications, events</text>
<text x="1360.3" y="34" text-anchor="end" font-size="11" fill="#2b2118" opacity="0.85">arrow into an event = published by&#160;&#160;·&#160;&#160;arrow into an application = consumed by</text>
<g id="epd-legend"><circle cx="40" cy="76" r="6" fill="#ffa94d" stroke="rgba(30,20,5,0.45)" stroke-width="1.2"/><text x="54" y="80" font-size="10.5" fill="#2b2118" opacity="0.85">event</text><circle cx="98" cy="76" r="6" fill="#ffa94d" stroke="rgba(30,20,5,0.45)" stroke-width="1.2"/><circle cx="98" cy="76" r="9.5" fill="none" stroke="#b07713" stroke-width="1.6" stroke-dasharray="3 2"/><text x="112" y="80" font-size="10.5" fill="#2b2118" opacity="0.85">shared event (⇄)</text><polygon points="228.1,72.5 228.1,79.5 222,83 215.9,79.5 215.9,72.5 222,69" fill="#fff" fill-opacity="0.9" stroke="#8a6d1d" stroke-width="1.8"/><text x="236" y="80" font-size="10.5" fill="#2b2118" opacity="0.85">internal service</text><circle cx="336" cy="76" r="6.5" fill="#fff" fill-opacity="0.9" stroke="#f8a8c8" stroke-width="1.8" stroke-dasharray="2.5 2"/><text x="350" y="80" font-size="10.5" fill="#2b2118" opacity="0.85">external system</text><line x1="442" y1="76" x2="458" y2="76" stroke="#7c5cbf" stroke-width="1.8" marker-end="url(#epd-arrow-x)"/><text x="464" y="80" font-size="10.5" fill="#2b2118" opacity="0.85">cross-domain flow</text><line x1="560" y1="76" x2="576" y2="76" stroke="#8a6d1d" stroke-width="1.5" stroke-dasharray="1.5 3" marker-end="url(#epd-arrow-agg)"/><text x="582" y="80" font-size="10.5" fill="#2b2118" opacity="0.85">owned by (aggregate)</text></g>
<rect data-epd-cell="1" data-x="40" data-y="104" data-w="1320.3" data-h="1200.3" x="40" y="104" width="1320.3" height="1200.3" rx="14" fill="hsla(205, 45%, 52%, 0.14)" stroke="rgba(43, 33, 24, 0.5)" stroke-width="2" stroke-dasharray="8 5"/>
<rect x="52" y="114" width="167.6" height="20" rx="3" fill="hsl(205, 34%, 27%)"/>
<text x="62" y="128" font-size="10.5" letter-spacing="1.2" fill="#f3e7d3">LCD: ORDER TO DOOR</text>
<line x1="1064.7" y1="475.7" x2="1062.6" y2="694" stroke="rgba(43,33,24,0.5)" stroke-width="1.4" marker-end="url(#epd-arrow)"/>
<line x1="879.1" y1="499.2" x2="1054.5" y2="697" stroke="#8a6d1d" stroke-width="1.5" stroke-dasharray="1.5 3" marker-end="url(#epd-arrow-agg)"/>
<line x1="1014.4" y1="1070.7" x2="1069" y2="838.8" stroke="rgba(43,33,24,0.5)" stroke-width="1.4" marker-end="url(#epd-arrow)"/>
<line x1="707.4" y1="992" x2="722.5" y2="1243.7" stroke="rgba(43,33,24,0.5)" stroke-width="1.4" marker-end="url(#epd-arrow)"/>
<line x1="165.5" y1="161.8" x2="143.8" y2="158" stroke="rgba(43,33,24,0.5)" stroke-width="1.4" marker-end="url(#epd-arrow)"/>
<line x1="1055.5" y1="471.3" x2="816.4" y2="668.7" stroke="rgba(43,33,24,0.5)" stroke-width="1.4" marker-end="url(#epd-arrow)"/>
<line x1="867.2" y1="501.5" x2="811" y2="665" stroke="#8a6d1d" stroke-width="1.5" stroke-dasharray="1.5 3" marker-end="url(#epd-arrow-agg)"/>
<line x1="154.7" y1="1095.1" x2="154.7" y2="998.4" stroke="rgba(43,33,24,0.5)" stroke-width="1.4" marker-end="url(#epd-arrow)"/>
<line x1="286.4" y1="1153.4" x2="162.1" y2="995.8" stroke="#8a6d1d" stroke-width="1.5" stroke-dasharray="1.5 3" marker-end="url(#epd-arrow-agg)"/>
<path d="M 1072.4 454.4 Q 1114.9 386.5 1172.8 331.3" fill="none" stroke="rgba(43,33,24,0.5)" stroke-width="1.4" marker-end="url(#epd-arrow)"/>
<path d="M 1244.5 433.7 Q 1206.8 388 1186.4 332.4" fill="none" stroke="#8a6d1d" stroke-width="1.5" stroke-dasharray="1.5 3" marker-end="url(#epd-arrow-agg)"/>
<line x1="1218.2" y1="1025.4" x2="1128.9" y2="1244.5" stroke="rgba(43,33,24,0.5)" stroke-width="1.4" marker-end="url(#epd-arrow)"/>
<line x1="154.7" y1="1119.1" x2="154.7" y2="1243.7" stroke="rgba(43,33,24,0.5)" stroke-width="1.4" marker-end="url(#epd-arrow)"/>
<line x1="283.8" y1="1169.5" x2="164.7" y2="1249" stroke="#8a6d1d" stroke-width="1.5" stroke-dasharray="1.5 3" marker-end="url(#epd-arrow-agg)"/>
<line x1="361.4" y1="1253.4" x2="582.1" y2="1211.3" stroke="rgba(43,33,24,0.5)" stroke-width="1.4" marker-end="url(#epd-arrow)"/>
<line x1="305.7" y1="1164.6" x2="582" y2="1207.2" stroke="#8a6d1d" stroke-width="1.5" stroke-dasharray="1.5 3" marker-end="url(#epd-arrow-agg)"/>
<line x1="337.6" y1="1255.7" x2="219" y2="1255.7" stroke="rgba(43,33,24,0.5)" stroke-width="1.4" marker-end="url(#epd-arrow)"/>
<line x1="285.6" y1="1171.6" x2="215.2" y2="1246.9" stroke="#8a6d1d" stroke-width="1.5" stroke-dasharray="1.5 3" marker-end="url(#epd-arrow-agg)"/>
<path d="M 1075.3 457.9 Q 1152.8 403.6 1240 366.9" fill="none" stroke="rgba(43,33,24,0.5)" stroke-width="1.4" marker-end="url(#epd-arrow)"/>
<line x1="1250.5" y1="432.1" x2="1250.5" y2="373.1" stroke="#8a6d1d" stroke-width="1.5" stroke-dasharray="1.5 3" marker-end="url(#epd-arrow-agg)"/>
<line x1="1054.2" y1="458.1" x2="796.6" y2="322.5" stroke="rgba(43,33,24,0.5)" stroke-width="1.4" marker-end="url(#epd-arrow)"/>
<line x1="865.8" y1="479.4" x2="791.3" y2="327.7" stroke="#8a6d1d" stroke-width="1.5" stroke-dasharray="1.5 3" marker-end="url(#epd-arrow-agg)"/>
<line x1="1062.4" y1="451.9" x2="1005.7" y2="171.7" stroke="rgba(43,33,24,0.5)" stroke-width="1.4" marker-end="url(#epd-arrow)"/>
<line x1="1017.3" y1="1071.8" x2="1192.3" y2="748.5" stroke="rgba(43,33,24,0.5)" stroke-width="1.4" marker-end="url(#epd-arrow)"/>
<path d="M 1062.3 452 Q 1043.5 410.4 1044.2 364.8" fill="none" stroke="rgba(43,33,24,0.5)" stroke-width="1.4" marker-end="url(#epd-arrow)"/>
<line x1="1239.5" y1="439.3" x2="1052.7" y2="357.9" stroke="#8a6d1d" stroke-width="1.5" stroke-dasharray="1.5 3" marker-end="url(#epd-arrow-agg)"/>
<path d="M 1055.8 455.8 Q 980.8 403.3 918.9 335.8" fill="none" stroke="rgba(43,33,24,0.5)" stroke-width="1.4" marker-end="url(#epd-arrow)"/>
<line x1="873.9" y1="478.5" x2="907.1" y2="339.6" stroke="#8a6d1d" stroke-width="1.5" stroke-dasharray="1.5 3" marker-end="url(#epd-arrow-agg)"/>
<line x1="1021.3" y1="1089.5" x2="1258.6" y2="1263.2" stroke="rgba(43,33,24,0.5)" stroke-width="1.4" marker-end="url(#epd-arrow)"/>
<line x1="603.5" y1="1206.1" x2="998.2" y2="1086.5" stroke="rgba(43,33,24,0.5)" stroke-width="1.4" marker-end="url(#epd-arrow)"/>
<line x1="1118.9" y1="1247.2" x2="1019.2" y2="1094.1" stroke="rgba(43,33,24,0.5)" stroke-width="1.4" marker-end="url(#epd-arrow)"/>
<path d="M 1241.7 365.9 Q 1164.2 420.2 1077.1 456.9" fill="none" stroke="rgba(43,33,24,0.5)" stroke-width="1.4" marker-end="url(#epd-arrow)"/>
<path d="M 917.4 334.5 Q 992.4 387 1054.3 454.5" fill="none" stroke="rgba(43,33,24,0.5)" stroke-width="1.4" marker-end="url(#epd-arrow)"/>
<line x1="1242" y1="575.8" x2="1076.6" y2="471.2" stroke="rgba(43,33,24,0.5)" stroke-width="1.4" marker-end="url(#epd-arrow)"/>
<line x1="1193.6" y1="728.9" x2="1070.9" y2="476.3" stroke="rgba(43,33,24,0.5)" stroke-width="1.4" marker-end="url(#epd-arrow)"/>
<line x1="1199.8" y1="728.1" x2="1248" y2="457.9" stroke="#8a6d1d" stroke-width="1.5" stroke-dasharray="1.5 3" marker-end="url(#epd-arrow-agg)"/>
<line x1="804" y1="685.8" x2="711.1" y2="966.7" stroke="rgba(43,33,24,0.5)" stroke-width="1.4" marker-end="url(#epd-arrow)"/>
<line x1="1067.1" y1="714.9" x2="1216.2" y2="1001.9" stroke="rgba(43,33,24,0.5)" stroke-width="1.4" marker-end="url(#epd-arrow)"/>
<line x1="164.7" y1="1255.7" x2="335.6" y2="1255.7" stroke="rgba(43,33,24,0.5)" stroke-width="1.4" marker-end="url(#epd-arrow)"/>
<line x1="1071.6" y1="817.1" x2="1065.1" y2="477.7" stroke="rgba(43,33,24,0.5)" stroke-width="1.4" marker-end="url(#epd-arrow)"/>
<path d="M 1174.1 329.7 Q 1131.6 397.6 1073.6 452.9" fill="none" stroke="rgba(43,33,24,0.5)" stroke-width="1.4" marker-end="url(#epd-arrow)"/>
<path d="M 1185.4 330.7 Q 1223.1 376.4 1243.5 432" fill="none" stroke="#8a6d1d" stroke-width="1.5" stroke-dasharray="1.5 3" marker-end="url(#epd-arrow-agg)"/>
<line x1="1244.1" y1="250.3" x2="1073.8" y2="453" stroke="rgba(43,33,24,0.5)" stroke-width="1.4" marker-end="url(#epd-arrow)"/>
<line x1="1250.5" y1="252.6" x2="1250.5" y2="430.1" stroke="#8a6d1d" stroke-width="1.5" stroke-dasharray="1.5 3" marker-end="url(#epd-arrow-agg)"/>
<path d="M 1043.7 362.9 Q 1062.6 404.4 1061.9 450" fill="none" stroke="rgba(43,33,24,0.5)" stroke-width="1.4" marker-end="url(#epd-arrow)"/>
<line x1="1033.9" y1="359.4" x2="882" y2="481.4" stroke="#8a6d1d" stroke-width="1.5" stroke-dasharray="1.5 3" marker-end="url(#epd-arrow-agg)"/>
<circle cx="349.6" cy="1255.7" r="11" fill="#fff" fill-opacity="0.9" stroke="#f8a8c8" stroke-width="2.5" stroke-dasharray="3 2.5"/>
<text x="349.6" y="1279.7" text-anchor="middle" font-size="11" font-weight="700" fill="#2b2118">Carrier</text>
<text x="349.6" y="1291.7" text-anchor="middle" font-size="8" letter-spacing="1" fill="#2b2118" opacity="0.7">APPLICATION</text>
<circle cx="706.7" cy="980" r="11" fill="#fff" fill-opacity="0.9" stroke="#f8a8c8" stroke-width="2.5" stroke-dasharray="3 2.5"/>
<text x="706.7" y="1004" text-anchor="middle" font-size="11" font-weight="700" fill="#2b2118">Email/SMS</text>
<text x="706.7" y="1016" text-anchor="middle" font-size="8" letter-spacing="1" fill="#2b2118" opacity="0.7">APPLICATION</text>
<circle cx="1222.7" cy="1014.3" r="11" fill="#fff" fill-opacity="0.9" stroke="#f8a8c8" stroke-width="2.5" stroke-dasharray="3 2.5"/>
<text x="1222.7" y="1038.3" text-anchor="middle" font-size="11" font-weight="700" fill="#2b2118">Fraud scoring</text>
<text x="1222.7" y="1050.3" text-anchor="middle" font-size="8" letter-spacing="1" fill="#2b2118" opacity="0.7">APPLICATION</text>
<polygon points="1260.9,438.1 1260.9,450.1 1250.5,456.1 1240.1,450.1 1240.1,438.1 1250.5,432.1" fill="#fff" fill-opacity="0.9" stroke="#8a6d1d" stroke-width="2.5"/>
<text x="1250.5" y="468.1" text-anchor="middle" font-size="11" font-weight="700" fill="#2b2118">Inventory</text>
<text x="1250.5" y="480.1" text-anchor="middle" font-size="8" letter-spacing="1" fill="#2b2118" opacity="0.7">INTERNAL SERVICE</text>
<circle cx="177.3" cy="163.8" r="11" fill="#fff" fill-opacity="0.9" stroke="#f8a8c8" stroke-width="2.5" stroke-dasharray="3 2.5"/>
<text x="177.3" y="187.8" text-anchor="middle" font-size="11" font-weight="700" fill="#2b2118">Loyalty service</text>
<text x="177.3" y="199.8" text-anchor="middle" font-size="8" letter-spacing="1" fill="#2b2118" opacity="0.7">APPLICATION</text>
<polygon points="881.5,484.2 881.5,496.2 871.1,502.2 860.7,496.2 860.7,484.2 871.1,478.2" fill="#fff" fill-opacity="0.9" stroke="#8a6d1d" stroke-width="2.5"/>
<text x="871.1" y="514.2" text-anchor="middle" font-size="11" font-weight="700" fill="#2b2118">Order</text>
<text x="871.1" y="526.2" text-anchor="middle" font-size="8" letter-spacing="1" fill="#2b2118" opacity="0.7">INTERNAL SERVICE</text>
<circle cx="1064.8" cy="463.7" r="11" fill="#fff" fill-opacity="0.9" stroke="#f8a8c8" stroke-width="2.5" stroke-dasharray="3 2.5"/>
<text x="1064.8" y="487.7" text-anchor="middle" font-size="11" font-weight="700" fill="#2b2118">Order service</text>
<text x="1064.8" y="499.7" text-anchor="middle" font-size="8" letter-spacing="1" fill="#2b2118" opacity="0.7">APPLICATION</text>
<circle cx="1011.6" cy="1082.4" r="11" fill="#fff" fill-opacity="0.9" stroke="#f8a8c8" stroke-width="2.5" stroke-dasharray="3 2.5"/>
<text x="1011.6" y="1106.4" text-anchor="middle" font-size="11" font-weight="700" fill="#2b2118">Payment gateway</text>
<text x="1011.6" y="1118.4" text-anchor="middle" font-size="8" letter-spacing="1" fill="#2b2118" opacity="0.7">APPLICATION</text>
<polygon points="304.2,1156.8 304.2,1168.8 293.8,1174.8 283.4,1168.8 283.4,1156.8 293.8,1150.8" fill="#fff" fill-opacity="0.9" stroke="#8a6d1d" stroke-width="2.5"/>
<text x="293.8" y="1186.8" text-anchor="middle" font-size="11" font-weight="700" fill="#2b2118">Shipment</text>
<text x="293.8" y="1198.8" text-anchor="middle" font-size="8" letter-spacing="1" fill="#2b2118" opacity="0.7">INTERNAL SERVICE</text>
<circle cx="154.7" cy="1107.1" r="11" fill="#fff" fill-opacity="0.9" stroke="#f8a8c8" stroke-width="2.5" stroke-dasharray="3 2.5"/>
<text x="154.7" y="1131.1" text-anchor="middle" font-size="11" font-weight="700" fill="#2b2118">Warehouse system</text>
<text x="154.7" y="1143.1" text-anchor="middle" font-size="8" letter-spacing="1" fill="#2b2118" opacity="0.7">APPLICATION</text>
<circle cx="1250.5" cy="159.9" r="9" fill="#ffa94d" stroke="rgba(30,20,5,0.45)" stroke-width="1.5"/>
<text x="1250.5" y="181.9" text-anchor="middle" font-size="11" font-weight="600" fill="#2b2118">sticky-4e5e2eff-6f52-4fbb-8cd…</text>
<circle cx="1062.5" cy="706" r="9" fill="#ffa94d" stroke="rgba(30,20,5,0.45)" stroke-width="1.5"/>
<text x="1062.5" y="728" text-anchor="middle" font-size="11" font-weight="600" fill="#2b2118">Order placed</text>
<text x="1062.5" y="739" text-anchor="middle" font-size="8" font-style="italic" fill="#2b2118" opacity="0.7">larkspur/order/placed/v1/{orderId}</text>
<circle cx="1003.3" cy="159.9" r="9" fill="#ffa94d" stroke="rgba(30,20,5,0.45)" stroke-width="1.5"/>
<text x="1003.3" y="181.9" text-anchor="middle" font-size="11" font-weight="600" fill="#2b2118">Cart abandoned</text>
<text x="1003.3" y="192.9" text-anchor="middle" font-size="8" font-style="italic" fill="#2b2118" opacity="0.7">larkspur/order/cart/abandoned/v1</text>
<circle cx="1071.8" cy="827.1" r="9" fill="#ffa94d" stroke="rgba(30,20,5,0.45)" stroke-width="1.5"/>
<text x="1071.8" y="849.1" text-anchor="middle" font-size="11" font-weight="600" fill="#2b2118">Payment declined</text>
<text x="1071.8" y="860.1" text-anchor="middle" font-size="8" font-style="italic" fill="#2b2118" opacity="0.7">larkspur/order/auth/declined/v1/{orderI…</text>
<circle cx="723.2" cy="1255.7" r="9" fill="#ffa94d" stroke="rgba(30,20,5,0.45)" stroke-width="1.5"/>
<text x="723.2" y="1277.7" text-anchor="middle" font-size="11" font-weight="600" fill="#2b2118">Order confirmation sent</text>
<text x="723.2" y="1288.7" text-anchor="middle" font-size="8" font-style="italic" fill="#2b2118" opacity="0.7">larkspur/order/confirmation/sent/v1/{or…</text>
<circle cx="1250.5" cy="242.6" r="9" fill="#ffa94d" stroke="rgba(30,20,5,0.45)" stroke-width="1.5"/>
<text x="1250.5" y="264.6" text-anchor="middle" font-size="11" font-weight="600" fill="#2b2118">Stock replenished</text>
<text x="1250.5" y="275.6" text-anchor="middle" font-size="8" font-style="italic" fill="#2b2118" opacity="0.7">larkspur/order/stock/replenished/v1/{sk…</text>
<circle cx="1232.7" cy="1241.2" r="9" fill="#ffa94d" stroke="rgba(30,20,5,0.45)" stroke-width="1.5"/>
<text x="1232.7" y="1263.2" text-anchor="middle" font-size="11" font-weight="600" fill="#2b2118">Order fulfilled</text>
<circle cx="132" cy="156" r="9" fill="#ffa94d" stroke="rgba(30,20,5,0.45)" stroke-width="1.5"/>
<text x="132" y="178" text-anchor="middle" font-size="11" font-weight="600" fill="#2b2118">Loyalty points earned</text>
<text x="132" y="189" text-anchor="middle" font-size="8" font-style="italic" fill="#2b2118" opacity="0.7">larkspur/order/loyalty/points-earned/v1</text>
<circle cx="1180.4" cy="322" r="9" fill="#ffa94d" stroke="rgba(30,20,5,0.45)" stroke-width="1.5"/>
<text x="1180.4" y="344" text-anchor="middle" font-size="11" font-weight="600" fill="#2b2118">Stock insufficient</text>
<text x="1180.4" y="355" text-anchor="middle" font-size="8" font-style="italic" fill="#2b2118" opacity="0.7">larkspur/order/stock/insufficient/v1/{o…</text>
<circle cx="1124.4" cy="1255.6" r="9" fill="#ffa94d" stroke="rgba(30,20,5,0.45)" stroke-width="1.5"/>
<text x="1124.4" y="1277.6" text-anchor="middle" font-size="11" font-weight="600" fill="#2b2118">Fraud check passed</text>
<text x="1124.4" y="1288.6" text-anchor="middle" font-size="8" font-style="italic" fill="#2b2118" opacity="0.7">larkspur/order/fraud-check/passed/v1/{o…</text>
<circle cx="786" cy="316.9" r="9" fill="#ffa94d" stroke="rgba(30,20,5,0.45)" stroke-width="1.5"/>
<text x="786" y="338.9" text-anchor="middle" font-size="11" font-weight="600" fill="#2b2118">Order cancelled</text>
<text x="786" y="349.9" text-anchor="middle" font-size="8" font-style="italic" fill="#2b2118" opacity="0.7">larkspur/order/cancelled/v1/{orderId}</text>
<circle cx="1198" cy="737.9" r="9" fill="#ffa94d" stroke="rgba(30,20,5,0.45)" stroke-width="1.5"/>
<text x="1198" y="759.9" text-anchor="middle" font-size="11" font-weight="600" fill="#2b2118">Payment authorized</text>
<text x="1198" y="770.9" text-anchor="middle" font-size="8" font-style="italic" fill="#2b2118" opacity="0.7">larkspur/order/checkout/payment/authori…</text>
<circle cx="807.1" cy="676.3" r="9" fill="#ffa94d" stroke="rgba(30,20,5,0.45)" stroke-width="1.5"/>
<text x="807.1" y="698.3" text-anchor="middle" font-size="11" font-weight="600" fill="#2b2118">Order confirmed</text>
<text x="807.1" y="709.3" text-anchor="middle" font-size="8" font-style="italic" fill="#2b2118" opacity="0.7">larkspur/order/confirmed/v1/{orderId}</text>
<circle cx="1250.5" cy="361.1" r="9" fill="#ffa94d" stroke="rgba(30,20,5,0.45)" stroke-width="1.5"/>
<text x="1250.5" y="383.1" text-anchor="middle" font-size="11" font-weight="600" fill="#2b2118">Backorder created</text>
<text x="1250.5" y="394.1" text-anchor="middle" font-size="8" font-style="italic" fill="#2b2118" opacity="0.7">larkspur/order/backorder/created/v1/{or…</text>
<circle cx="1250.5" cy="581.1" r="9" fill="#ffa94d" stroke="rgba(30,20,5,0.45)" stroke-width="1.5"/>
<text x="1250.5" y="603.1" text-anchor="middle" font-size="11" font-weight="600" fill="#2b2118">Promo campaign launched</text>
<circle cx="1041.7" cy="353.1" r="9" fill="#ffa94d" stroke="rgba(30,20,5,0.45)" stroke-width="1.5"/>
<text x="1041.7" y="375.1" text-anchor="middle" font-size="11" font-weight="600" fill="#2b2118">Stock reserved</text>
<text x="1041.7" y="386.1" text-anchor="middle" font-size="8" font-style="italic" fill="#2b2118" opacity="0.7">larkspur/order/stock/reserved/v1/{order…</text>
<circle cx="909.9" cy="327.9" r="9" fill="#ffa94d" stroke="rgba(30,20,5,0.45)" stroke-width="1.5"/>
<text x="909.9" y="349.9" text-anchor="middle" font-size="11" font-weight="600" fill="#2b2118">Retry prompted</text>
<text x="909.9" y="360.9" text-anchor="middle" font-size="8" font-style="italic" fill="#2b2118" opacity="0.7">larkspur/order/retry/prompted/v1/{order…</text>
<circle cx="207" cy="1255.7" r="9" fill="#ffa94d" stroke="rgba(30,20,5,0.45)" stroke-width="1.5"/>
<text x="207" y="1277.7" text-anchor="middle" font-size="11" font-weight="600" fill="#2b2118">Order delivered</text>
<text x="207" y="1288.7" text-anchor="middle" font-size="8" font-style="italic" fill="#2b2118" opacity="0.7">larkspur/order/delivered/v1/{orderId}</text>
<circle cx="154.7" cy="986.4" r="9" fill="#ffa94d" stroke="rgba(30,20,5,0.45)" stroke-width="1.5"/>
<text x="154.7" y="1008.4" text-anchor="middle" font-size="11" font-weight="600" fill="#2b2118">Order picked</text>
<text x="154.7" y="1019.4" text-anchor="middle" font-size="8" font-style="italic" fill="#2b2118" opacity="0.7">larkspur/order/picked/v1/{orderId}</text>
<circle cx="1268.3" cy="1270.3" r="9" fill="#ffa94d" stroke="rgba(30,20,5,0.45)" stroke-width="1.5"/>
<text x="1268.3" y="1292.3" text-anchor="middle" font-size="11" font-weight="600" fill="#2b2118">Payment captured</text>
<text x="1268.3" y="1303.3" text-anchor="middle" font-size="8" font-style="italic" fill="#2b2118" opacity="0.7">larkspur/order/checkout/payment/capture…</text>
<circle cx="593.9" cy="1209" r="9" fill="#ffa94d" stroke="rgba(30,20,5,0.45)" stroke-width="1.5"/>
<text x="593.9" y="1231" text-anchor="middle" font-size="11" font-weight="600" fill="#2b2118">Shipment handed to carrier</text>
<text x="593.9" y="1242" text-anchor="middle" font-size="8" font-style="italic" fill="#2b2118" opacity="0.7">larkspur/order/shipment/handed-to-carri…</text>
<circle cx="154.7" cy="1255.7" r="9" fill="#ffa94d" stroke="rgba(30,20,5,0.45)" stroke-width="1.5"/>
<text x="154.7" y="1277.7" text-anchor="middle" font-size="11" font-weight="600" fill="#2b2118">Order packed</text>
<text x="154.7" y="1288.7" text-anchor="middle" font-size="8" font-style="italic" fill="#2b2118" opacity="0.7">larkspur/order/packed/v1/{orderId}</text>
</g>
</svg>